<?xml version="1.0" encoding="UTF-8" standalone="no"?>
<!DOCTYPE svg PUBLIC "-//W3C//DTD SVG 1.1//EN"
 "http://www.w3.org/Graphics/SVG/1.1/DTD/svg11.dtd">
<!-- Generated by graphviz version 2.43.0 (0)
 -->
<!-- Title: G Pages: 1 -->
<svg width="548pt" height="848pt"
 viewBox="0.00 0.00 411.00 636.00" xmlns="http://www.w3.org/2000/svg" xmlns:xlink="http://www.w3.org/1999/xlink">
<g id="graph0" class="graph" transform="scale(1 1) rotate(0) translate(4 632)">
<title>G</title>
<polygon fill="white" stroke="transparent" points="-4,4 -4,-632 407,-632 407,4 -4,4"/>
<!-- 140199228477552 -->
<g id="node1" class="node">
<title>140199228477552</title>
<polygon fill="none" stroke="black" points="45.5,-581.5 45.5,-627.5 357.5,-627.5 357.5,-581.5 45.5,-581.5"/>
<text text-anchor="middle" x="93" y="-600.8" font-family="Times,serif" font-size="14.00">InputLayer</text>
<polyline fill="none" stroke="black" points="140.5,-581.5 140.5,-627.5 "/>
<text text-anchor="middle" x="174.5" y="-612.3" font-family="Times,serif" font-size="14.00">input:</text>
<polyline fill="none" stroke="black" points="140.5,-604.5 208.5,-604.5 "/>
<text text-anchor="middle" x="174.5" y="-589.3" font-family="Times,serif" font-size="14.00">output:</text>
<polyline fill="none" stroke="black" points="208.5,-581.5 208.5,-627.5 "/>
<text text-anchor="middle" x="283" y="-612.3" font-family="Times,serif" font-size="14.00">[(1, [2-16], 64)]</text>
<polyline fill="none" stroke="black" points="208.5,-604.5 357.5,-604.5 "/>
<text text-anchor="middle" x="283" y="-589.3" font-family="Times,serif" font-size="14.00">[(1, [2-16], 64)]</text>
</g>
<!-- 140199224129520 -->
<g id="node2" class="node">
<title>140199224129520</title>
<polygon fill="none" stroke="black" points="0,-498.5 0,-544.5 403,-544.5 403,-498.5 0,-498.5"/>
<text text-anchor="middle" x="94" y="-517.8" font-family="Times,serif" font-size="14.00">TimeDistributed(Dense)</text>
<polyline fill="none" stroke="black" points="188,-498.5 188,-544.5 "/>
<text text-anchor="middle" x="222" y="-529.3" font-family="Times,serif" font-size="14.00">input:</text>
<polyline fill="none" stroke="black" points="188,-521.5 256,-521.5 "/>
<text text-anchor="middle" x="222" y="-506.3" font-family="Times,serif" font-size="14.00">output:</text>
<polyline fill="none" stroke="black" points="256,-498.5 256,-544.5 "/>
<text text-anchor="middle" x="329.5" y="-529.3" font-family="Times,serif" font-size="14.00">(1, [2-16], 64)</text>
<polyline fill="none" stroke="black" points="256,-521.5 403,-521.5 "/>
<text text-anchor="middle" x="329.5" y="-506.3" font-family="Times,serif" font-size="14.00">(1, [2-16], 128)</text>
</g>
<!-- 140199228477552&#45;&gt;140199224129520 -->
<g id="edge1" class="edge">
<title>140199228477552&#45;&gt;140199224129520</title>
<path fill="none" stroke="black" d="M201.5,-581.37C201.5,-573.15 201.5,-563.66 201.5,-554.73"/>
<polygon fill="black" stroke="black" points="205,-554.61 201.5,-544.61 198,-554.61 205,-554.61"/>
</g>
<!-- 140199224131440 -->
<g id="node3" class="node">
<title>140199224131440</title>
<polygon fill="none" stroke="black" points="0,-415.5 0,-461.5 403,-461.5 403,-415.5 0,-415.5"/>
<text text-anchor="middle" x="94" y="-434.8" font-family="Times,serif" font-size="14.00">TimeDistributed(Dense)</text>
<polyline fill="none" stroke="black" points="188,-415.5 188,-461.5 "/>
<text text-anchor="middle" x="222" y="-446.3" font-family="Times,serif" font-size="14.00">input:</text>
<polyline fill="none" stroke="black" points="188,-438.5 256,-438.5 "/>
<text text-anchor="middle" x="222" y="-423.3" font-family="Times,serif" font-size="14.00">output:</text>
<polyline fill="none" stroke="black" points="256,-415.5 256,-461.5 "/>
<text text-anchor="middle" x="329.5" y="-446.3" font-family="Times,serif" font-size="14.00">(1, [2-16], 128)</text>
<polyline fill="none" stroke="black" points="256,-438.5 403,-438.5 "/>
<text text-anchor="middle" x="329.5" y="-423.3" font-family="Times,serif" font-size="14.00">(1, [2-16], 64)</text>
</g>
<!-- 140199224129520&#45;&gt;140199224131440 -->
<g id="edge2" class="edge">
<title>140199224129520&#45;&gt;140199224131440</title>
<path fill="none" stroke="black" d="M201.5,-498.37C201.5,-490.15 201.5,-480.66 201.5,-471.73"/>
<polygon fill="black" stroke="black" points="205,-471.61 201.5,-461.61 198,-471.61 205,-471.61"/>
</g>
<!-- 140199214606800 -->
<g id="node4" class="node">
<title>140199214606800</title>
<polygon fill="none" stroke="black" points="4.5,-332.5 4.5,-378.5 398.5,-378.5 398.5,-332.5 4.5,-332.5"/>
<text text-anchor="middle" x="98.5" y="-351.8" font-family="Times,serif" font-size="14.00">TimeDistributed(Dense)</text>
<polyline fill="none" stroke="black" points="192.5,-332.5 192.5,-378.5 "/>
<text text-anchor="middle" x="226.5" y="-363.3" font-family="Times,serif" font-size="14.00">input:</text>
<polyline fill="none" stroke="black" points="192.5,-355.5 260.5,-355.5 "/>
<text text-anchor="middle" x="226.5" y="-340.3" font-family="Times,serif" font-size="14.00">output:</text>
<polyline fill="none" stroke="black" points="260.5,-332.5 260.5,-378.5 "/>
<text text-anchor="middle" x="329.5" y="-363.3" font-family="Times,serif" font-size="14.00">(1, [2-16], 64)</text>
<polyline fill="none" stroke="black" points="260.5,-355.5 398.5,-355.5 "/>
<text text-anchor="middle" x="329.5" y="-340.3" font-family="Times,serif" font-size="14.00">(1, [2-16], 32)</text>
</g>
<!-- 140199224131440&#45;&gt;140199214606800 -->
<g id="edge3" class="edge">
<title>140199224131440&#45;&gt;140199214606800</title>
<path fill="none" stroke="black" d="M201.5,-415.37C201.5,-407.15 201.5,-397.66 201.5,-388.73"/>
<polygon fill="black" stroke="black" points="205,-388.61 201.5,-378.61 198,-388.61 205,-388.61"/>
</g>
<!-- 140199214215424 -->
<g id="node5" class="node">
<title>140199214215424</title>
<polygon fill="none" stroke="black" points="4.5,-249.5 4.5,-295.5 398.5,-295.5 398.5,-249.5 4.5,-249.5"/>
<text text-anchor="middle" x="98.5" y="-268.8" font-family="Times,serif" font-size="14.00">TimeDistributed(Dense)</text>
<polyline fill="none" stroke="black" points="192.5,-249.5 192.5,-295.5 "/>
<text text-anchor="middle" x="226.5" y="-280.3" font-family="Times,serif" font-size="14.00">input:</text>
<polyline fill="none" stroke="black" points="192.5,-272.5 260.5,-272.5 "/>
<text text-anchor="middle" x="226.5" y="-257.3" font-family="Times,serif" font-size="14.00">output:</text>
<polyline fill="none" stroke="black" points="260.5,-249.5 260.5,-295.5 "/>
<text text-anchor="middle" x="329.5" y="-280.3" font-family="Times,serif" font-size="14.00">(1, [2-16], 32)</text>
<polyline fill="none" stroke="black" points="260.5,-272.5 398.5,-272.5 "/>
<text text-anchor="middle" x="329.5" y="-257.3" font-family="Times,serif" font-size="14.00">(1, [2-16], 16)</text>
</g>
<!-- 140199214606800&#45;&gt;140199214215424 -->
<g id="edge4" class="edge">
<title>140199214606800&#45;&gt;140199214215424</title>
<path fill="none" stroke="black" d="M201.5,-332.37C201.5,-324.15 201.5,-314.66 201.5,-305.73"/>
<polygon fill="black" stroke="black" points="205,-305.61 201.5,-295.61 198,-305.61 205,-305.61"/>
</g>
<!-- 140199214250928 -->
<g id="node6" class="node">
<title>140199214250928</title>
<polygon fill="none" stroke="black" points="42,-166.5 42,-212.5 361,-212.5 361,-166.5 42,-166.5"/>
<text text-anchor="middle" x="98.5" y="-185.8" font-family="Times,serif" font-size="14.00">TFOpLambda</text>
<polyline fill="none" stroke="black" points="155,-166.5 155,-212.5 "/>
<text text-anchor="middle" x="189" y="-197.3" font-family="Times,serif" font-size="14.00">input:</text>
<polyline fill="none" stroke="black" points="155,-189.5 223,-189.5 "/>
<text text-anchor="middle" x="189" y="-174.3" font-family="Times,serif" font-size="14.00">output:</text>
<polyline fill="none" stroke="black" points="223,-166.5 223,-212.5 "/>
<text text-anchor="middle" x="292" y="-197.3" font-family="Times,serif" font-size="14.00">(1, [2-16], 16)</text>
<polyline fill="none" stroke="black" points="223,-189.5 361,-189.5 "/>
<text text-anchor="middle" x="292" y="-174.3" font-family="Times,serif" font-size="14.00">(1, 16)</text>
</g>
<!-- 140199214215424&#45;&gt;140199214250928 -->
<g id="edge5" class="edge">
<title>140199214215424&#45;&gt;140199214250928</title>
<path fill="none" stroke="black" d="M201.5,-249.37C201.5,-241.15 201.5,-231.66 201.5,-222.73"/>
<polygon fill="black" stroke="black" points="205,-222.61 201.5,-212.61 198,-222.61 205,-222.61"/>
</g>
<!-- 140199214251264 -->
<g id="node7" class="node">
<title>140199214251264</title>
<polygon fill="none" stroke="black" points="62,-83.5 62,-129.5 341,-129.5 341,-83.5 62,-83.5"/>
<text text-anchor="middle" x="92.5" y="-102.8" font-family="Times,serif" font-size="14.00">Dense</text>
<polyline fill="none" stroke="black" points="123,-83.5 123,-129.5 "/>
<text text-anchor="middle" x="152" y="-102.8" font-family="Times,serif" font-size="14.00">linear</text>
<polyline fill="none" stroke="black" points="181,-83.5 181,-129.5 "/>
<text text-anchor="middle" x="215" y="-114.3" font-family="Times,serif" font-size="14.00">input:</text>
<polyline fill="none" stroke="black" points="181,-106.5 249,-106.5 "/>
<text text-anchor="middle" x="215" y="-91.3" font-family="Times,serif" font-size="14.00">output:</text>
<polyline fill="none" stroke="black" points="249,-83.5 249,-129.5 "/>
<text text-anchor="middle" x="295" y="-114.3" font-family="Times,serif" font-size="14.00">(1, 16)</text>
<polyline fill="none" stroke="black" points="249,-106.5 341,-106.5 "/>
<text text-anchor="middle" x="295" y="-91.3" font-family="Times,serif" font-size="14.00">(1, 16)</text>
</g>
<!-- 140199214250928&#45;&gt;140199214251264 -->
<g id="edge6" class="edge">
<title>140199214250928&#45;&gt;140199214251264</title>
<path fill="none" stroke="black" d="M201.5,-166.37C201.5,-158.15 201.5,-148.66 201.5,-139.73"/>
<polygon fill="black" stroke="black" points="205,-139.61 201.5,-129.61 198,-139.61 205,-139.61"/>
</g>
<!-- 140199214249248 -->
<g id="node8" class="node">
<title>140199214249248</title>
<polygon fill="none" stroke="black" points="62,-0.5 62,-46.5 341,-46.5 341,-0.5 62,-0.5"/>
<text text-anchor="middle" x="92.5" y="-19.8" font-family="Times,serif" font-size="14.00">Dense</text>
<polyline fill="none" stroke="black" points="123,-0.5 123,-46.5 "/>
<text text-anchor="middle" x="152" y="-19.8" font-family="Times,serif" font-size="14.00">linear</text>
<polyline fill="none" stroke="black" points="181,-0.5 181,-46.5 "/>
<text text-anchor="middle" x="215" y="-31.3" font-family="Times,serif" font-size="14.00">input:</text>
<polyline fill="none" stroke="black" points="181,-23.5 249,-23.5 "/>
<text text-anchor="middle" x="215" y="-8.3" font-family="Times,serif" font-size="14.00">output:</text>
<polyline fill="none" stroke="black" points="249,-0.5 249,-46.5 "/>
<text text-anchor="middle" x="295" y="-31.3" font-family="Times,serif" font-size="14.00">(1, 16)</text>
<polyline fill="none" stroke="black" points="249,-23.5 341,-23.5 "/>
<text text-anchor="middle" x="295" y="-8.3" font-family="Times,serif" font-size="14.00">(1, 1)</text>
</g>
<!-- 140199214251264&#45;&gt;140199214249248 -->
<g id="edge7" class="edge">
<title>140199214251264&#45;&gt;140199214249248</title>
<path fill="none" stroke="black" d="M201.5,-83.37C201.5,-75.15 201.5,-65.66 201.5,-56.73"/>
<polygon fill="black" stroke="black" points="205,-56.61 201.5,-46.61 198,-56.61 205,-56.61"/>
</g>
</g>
</svg>
