<?xml version="1.0" encoding="UTF-8" standalone="no"?>
<!DOCTYPE svg PUBLIC "-//W3C//DTD SVG 1.1//EN"
 "http://www.w3.org/Graphics/SVG/1.1/DTD/svg11.dtd">
<!-- Generated by graphviz version 2.43.0 (0)
 -->
<!-- Title: G Pages: 1 -->
<svg width="600pt" height="600pt"
 viewBox="0.00 0.00 303.00 304.00" xmlns="http://www.w3.org/2000/svg" xmlns:xlink="http://www.w3.org/1999/xlink">
<g id="graph0" class="graph" transform="scale(1 1) rotate(0) translate(4 300)">
<title>G</title>
<polygon fill="white" stroke="transparent" points="-4,4 -4,-300 299,-300 299,4 -4,4"/>
<!-- 139860561399920 -->
<g id="node1" class="node">
<title>139860561399920</title>
<polygon fill="none" stroke="black" points="15,-249.5 15,-295.5 280,-295.5 280,-249.5 15,-249.5"/>
<text text-anchor="middle" x="62.5" y="-268.8" font-family="Times,serif" font-size="11.00">InputLayer</text>
<polyline fill="none" stroke="black" points="110,-249.5 110,-295.5 "/>
<text text-anchor="middle" x="144" y="-280.3" font-family="Times,serif" font-size="11.00">input:</text>
<polyline fill="none" stroke="black" points="110,-272.5 178,-272.5 "/>
<text text-anchor="middle" x="144" y="-257.3" font-family="Times,serif" font-size="11.00">output:</text>
<polyline fill="none" stroke="black" points="178,-249.5 178,-295.5 "/>
<text text-anchor="middle" x="229" y="-280.3" font-family="Times,serif" font-size="11.00">[(batch_size, 64)]</text>
<polyline fill="none" stroke="black" points="178,-272.5 280,-272.5 "/>
<text text-anchor="middle" x="229" y="-257.3" font-family="Times,serif" font-size="11.00">[(batch_size, 64)]</text>
</g>
<!-- 139860557052224 -->
<g id="node2" class="node">
<title>139860557052224</title>
<polygon fill="none" stroke="black" points="14.5,-166.5 14.5,-212.5 280.5,-212.5 280.5,-166.5 14.5,-166.5"/>
<text text-anchor="middle" x="45" y="-185.8" font-family="Times,serif" font-size="11.00">Dense</text>
<polyline fill="none" stroke="black" points="75.5,-166.5 75.5,-212.5 "/>
<text text-anchor="middle" x="98" y="-185.8" font-family="Times,serif" font-size="11.00">relu</text>
<polyline fill="none" stroke="black" points="120.5,-166.5 120.5,-212.5 "/>
<text text-anchor="middle" x="154.5" y="-197.3" font-family="Times,serif" font-size="11.00">input:</text>
<polyline fill="none" stroke="black" points="120.5,-189.5 188.5,-189.5 "/>
<text text-anchor="middle" x="154.5" y="-174.3" font-family="Times,serif" font-size="11.00">output:</text>
<polyline fill="none" stroke="black" points="188.5,-166.5 188.5,-212.5 "/>
<text text-anchor="middle" x="234.5" y="-197.3" font-family="Times,serif" font-size="11.00">(batch_size, 64)</text>
<polyline fill="none" stroke="black" points="188.5,-189.5 280.5,-189.5 "/>
<text text-anchor="middle" x="234.5" y="-174.3" font-family="Times,serif" font-size="11.00">(batch_size, 32)</text>
</g>
<!-- 139860561399920&#45;&gt;139860557052224 -->
<g id="edge1" class="edge">
<title>139860561399920&#45;&gt;139860557052224</title>
<path fill="none" stroke="black" d="M147.5,-249.37C147.5,-241.15 147.5,-231.66 147.5,-222.73"/>
<polygon fill="black" stroke="black" points="151,-222.61 147.5,-212.61 144,-222.61 151,-222.61"/>
</g>
<!-- 139860557053040 -->
<g id="node3" class="node">
<title>139860557053040</title>
<polygon fill="none" stroke="black" points="14.5,-83.5 14.5,-129.5 280.5,-129.5 280.5,-83.5 14.5,-83.5"/>
<text text-anchor="middle" x="45" y="-102.8" font-family="Times,serif" font-size="11.00">Dense</text>
<polyline fill="none" stroke="black" points="75.5,-83.5 75.5,-129.5 "/>
<text text-anchor="middle" x="98" y="-102.8" font-family="Times,serif" font-size="11.00">relu</text>
<polyline fill="none" stroke="black" points="120.5,-83.5 120.5,-129.5 "/>
<text text-anchor="middle" x="154.5" y="-114.3" font-family="Times,serif" font-size="11.00">input:</text>
<polyline fill="none" stroke="black" points="120.5,-106.5 188.5,-106.5 "/>
<text text-anchor="middle" x="154.5" y="-91.3" font-family="Times,serif" font-size="11.00">output:</text>
<polyline fill="none" stroke="black" points="188.5,-83.5 188.5,-129.5 "/>
<text text-anchor="middle" x="234.5" y="-114.3" font-family="Times,serif" font-size="11.00">(batch_size, 32)</text>
<polyline fill="none" stroke="black" points="188.5,-106.5 280.5,-106.5 "/>
<text text-anchor="middle" x="234.5" y="-91.3" font-family="Times,serif" font-size="11.00">(batch_size, 32)</text>
</g>
<!-- 139860557052224&#45;&gt;139860557053040 -->
<g id="edge2" class="edge">
<title>139860557052224&#45;&gt;139860557053040</title>
<path fill="none" stroke="black" d="M147.5,-166.37C147.5,-158.15 147.5,-148.66 147.5,-139.73"/>
<polygon fill="black" stroke="black" points="151,-139.61 147.5,-129.61 144,-139.61 151,-139.61"/>
</g>
<!-- 139860557053424 -->
<g id="node4" class="node">
<title>139860557053424</title>
<polygon fill="none" stroke="black" points="0,-0.5 0,-46.5 295,-46.5 295,-0.5 0,-0.5"/>
<text text-anchor="middle" x="30.5" y="-19.8" font-family="Times,serif" font-size="11.00">Dense</text>
<polyline fill="none" stroke="black" points="61,-0.5 61,-46.5 "/>
<text text-anchor="middle" x="98" y="-19.8" font-family="Times,serif" font-size="11.00">softmax</text>
<polyline fill="none" stroke="black" points="135,-0.5 135,-46.5 "/>
<text text-anchor="middle" x="169" y="-31.3" font-family="Times,serif" font-size="11.00">input:</text>
<polyline fill="none" stroke="black" points="135,-23.5 203,-23.5 "/>
<text text-anchor="middle" x="169" y="-8.3" font-family="Times,serif" font-size="11.00">output:</text>
<polyline fill="none" stroke="black" points="203,-0.5 203,-46.5 "/>
<text text-anchor="middle" x="249" y="-31.3" font-family="Times,serif" font-size="11.00">(batch_size, 32)</text>
<polyline fill="none" stroke="black" points="203,-23.5 295,-23.5 "/>
<text text-anchor="middle" x="249" y="-8.3" font-family="Times,serif" font-size="11.00">(batch_size, 10)</text>
</g>
<!-- 139860557053040&#45;&gt;139860557053424 -->
<g id="edge3" class="edge">
<title>139860557053040&#45;&gt;139860557053424</title>
<path fill="none" stroke="black" d="M147.5,-83.37C147.5,-75.15 147.5,-65.66 147.5,-56.73"/>
<polygon fill="black" stroke="black" points="151,-56.61 147.5,-46.61 144,-56.61 151,-56.61"/>
</g>
</g>
</svg>
