<?xml version="1.0" encoding="UTF-8" standalone="no"?>
<!DOCTYPE svg PUBLIC "-//W3C//DTD SVG 1.1//EN"
 "http://www.w3.org/Graphics/SVG/1.1/DTD/svg11.dtd">
<!-- Generated by graphviz version 2.43.0 (0)
 -->
<!-- Title: G Pages: 1 -->
<svg width="383pt" height="405pt"
 viewBox="0.00 0.00 287.00 304.00" xmlns="http://www.w3.org/2000/svg" xmlns:xlink="http://www.w3.org/1999/xlink">
<g id="graph0" class="graph" transform="scale(1 1) rotate(0) translate(4 300)">
<title>G</title>
<polygon fill="white" stroke="transparent" points="-4,4 -4,-300 283,-300 283,4 -4,4"/>
<!-- 140543756120128 -->
<g id="node1" class="node">
<title>140543756120128</title>
<polygon fill="none" stroke="black" points="7,-249.5 7,-295.5 272,-295.5 272,-249.5 7,-249.5"/>
<text text-anchor="middle" x="54.5" y="-268.8" font-family="Times,serif" font-size="11.00">InputLayer</text>
<polyline fill="none" stroke="black" points="102,-249.5 102,-295.5 "/>
<text text-anchor="middle" x="136" y="-280.3" font-family="Times,serif" font-size="11.00">input:</text>
<polyline fill="none" stroke="black" points="102,-272.5 170,-272.5 "/>
<text text-anchor="middle" x="136" y="-257.3" font-family="Times,serif" font-size="11.00">output:</text>
<polyline fill="none" stroke="black" points="170,-249.5 170,-295.5 "/>
<text text-anchor="middle" x="221" y="-280.3" font-family="Times,serif" font-size="11.00">[(2000, [14,46])]</text>
<polyline fill="none" stroke="black" points="170,-272.5 272,-272.5 "/>
<text text-anchor="middle" x="221" y="-257.3" font-family="Times,serif" font-size="11.00">[(2000, [14,46])]</text>
</g>
<!-- 140541301622720 -->
<g id="node2" class="node">
<title>140541301622720</title>
<polygon fill="none" stroke="black" points="6.5,-166.5 6.5,-212.5 272.5,-212.5 272.5,-166.5 6.5,-166.5"/>
<text text-anchor="middle" x="37" y="-185.8" font-family="Times,serif" font-size="11.00">Dense</text>
<polyline fill="none" stroke="black" points="67.5,-166.5 67.5,-212.5 "/>
<text text-anchor="middle" x="90" y="-185.8" font-family="Times,serif" font-size="11.00">relu</text>
<polyline fill="none" stroke="black" points="112.5,-166.5 112.5,-212.5 "/>
<text text-anchor="middle" x="146.5" y="-197.3" font-family="Times,serif" font-size="11.00">input:</text>
<polyline fill="none" stroke="black" points="112.5,-189.5 180.5,-189.5 "/>
<text text-anchor="middle" x="146.5" y="-174.3" font-family="Times,serif" font-size="11.00">output:</text>
<polyline fill="none" stroke="black" points="180.5,-166.5 180.5,-212.5 "/>
<text text-anchor="middle" x="226.5" y="-197.3" font-family="Times,serif" font-size="11.00">(2000, [14,46])</text>
<polyline fill="none" stroke="black" points="180.5,-189.5 272.5,-189.5 "/>
<text text-anchor="middle" x="226.5" y="-174.3" font-family="Times,serif" font-size="11.00">(2000, 64)</text>
</g>
<!-- 140543756120128&#45;&gt;140541301622720 -->
<g id="edge1" class="edge">
<title>140543756120128&#45;&gt;140541301622720</title>
<path fill="none" stroke="black" d="M139.5,-249.37C139.5,-241.15 139.5,-231.66 139.5,-222.73"/>
<polygon fill="black" stroke="black" points="143,-222.61 139.5,-212.61 136,-222.61 143,-222.61"/>
</g>
<!-- 140541301623536 -->
<g id="node3" class="node">
<title>140541301623536</title>
<polygon fill="none" stroke="black" points="6.5,-83.5 6.5,-129.5 272.5,-129.5 272.5,-83.5 6.5,-83.5"/>
<text text-anchor="middle" x="37" y="-102.8" font-family="Times,serif" font-size="11.00">Dense</text>
<polyline fill="none" stroke="black" points="67.5,-83.5 67.5,-129.5 "/>
<text text-anchor="middle" x="90" y="-102.8" font-family="Times,serif" font-size="11.00">relu</text>
<polyline fill="none" stroke="black" points="112.5,-83.5 112.5,-129.5 "/>
<text text-anchor="middle" x="146.5" y="-114.3" font-family="Times,serif" font-size="11.00">input:</text>
<polyline fill="none" stroke="black" points="112.5,-106.5 180.5,-106.5 "/>
<text text-anchor="middle" x="146.5" y="-91.3" font-family="Times,serif" font-size="11.00">output:</text>
<polyline fill="none" stroke="black" points="180.5,-83.5 180.5,-129.5 "/>
<text text-anchor="middle" x="226.5" y="-114.3" font-family="Times,serif" font-size="11.00">(2000, 64)</text>
<polyline fill="none" stroke="black" points="180.5,-106.5 272.5,-106.5 "/>
<text text-anchor="middle" x="226.5" y="-91.3" font-family="Times,serif" font-size="11.00">(2000, 64)</text>
</g>
<!-- 140541301622720&#45;&gt;140541301623536 -->
<g id="edge2" class="edge">
<title>140541301622720&#45;&gt;140541301623536</title>
<path fill="none" stroke="black" d="M139.5,-166.37C139.5,-158.15 139.5,-148.66 139.5,-139.73"/>
<polygon fill="black" stroke="black" points="143,-139.61 139.5,-129.61 136,-139.61 143,-139.61"/>
</g>
<!-- 140541292747264 -->
<g id="node4" class="node">
<title>140541292747264</title>
<polygon fill="none" stroke="black" points="0,-0.5 0,-46.5 279,-46.5 279,-0.5 0,-0.5"/>
<text text-anchor="middle" x="30.5" y="-19.8" font-family="Times,serif" font-size="11.00">Dense</text>
<polyline fill="none" stroke="black" points="61,-0.5 61,-46.5 "/>
<text text-anchor="middle" x="90" y="-19.8" font-family="Times,serif" font-size="11.00">linear</text>
<polyline fill="none" stroke="black" points="119,-0.5 119,-46.5 "/>
<text text-anchor="middle" x="153" y="-31.3" font-family="Times,serif" font-size="11.00">input:</text>
<polyline fill="none" stroke="black" points="119,-23.5 187,-23.5 "/>
<text text-anchor="middle" x="153" y="-8.3" font-family="Times,serif" font-size="11.00">output:</text>
<polyline fill="none" stroke="black" points="187,-0.5 187,-46.5 "/>
<text text-anchor="middle" x="233" y="-31.3" font-family="Times,serif" font-size="11.00">(2000, 64)</text>
<polyline fill="none" stroke="black" points="187,-23.5 279,-23.5 "/>
<text text-anchor="middle" x="233" y="-8.3" font-family="Times,serif" font-size="11.00">(2000, [1,2])</text>
</g>
<!-- 140541301623536&#45;&gt;140541292747264 -->
<g id="edge3" class="edge">
<title>140541301623536&#45;&gt;140541292747264</title>
<path fill="none" stroke="black" d="M139.5,-83.37C139.5,-75.15 139.5,-65.66 139.5,-56.73"/>
<polygon fill="black" stroke="black" points="143,-56.61 139.5,-46.61 136,-56.61 143,-56.61"/>
</g>
</g>
</svg>
